<mxfile host="65bd71144e">
    <diagram id="txVnnGxwWaY1Q-EWvneA" name="Use case">
        <mxGraphModel dx="3750" dy="2295" grid="0" gridSize="10" guides="1" tooltips="1" connect="1" arrows="1" fold="1" page="1" pageScale="1" pageWidth="1700" pageHeight="1100" background="#FFFFFF" math="0" shadow="0">
            <root>
                <mxCell id="xXVs2Da8z8ImEFLXaKTG-0"/>
                <mxCell id="xXVs2Da8z8ImEFLXaKTG-1" parent="xXVs2Da8z8ImEFLXaKTG-0"/>
                <mxCell id="xXVs2Da8z8ImEFLXaKTG-2" value="" style="swimlane;startSize=0;rounded=1;shadow=1;sketch=1;fillColor=#0050ef;strokeColor=#001DBC;fontColor=#ffffff;" parent="xXVs2Da8z8ImEFLXaKTG-1" vertex="1">
                    <mxGeometry x="-45" y="-907" width="1444" height="1612" as="geometry"/>
                </mxCell>
                <mxCell id="xXVs2Da8z8ImEFLXaKTG-14" value="create workspace" style="ellipse;whiteSpace=wrap;html=1;rounded=1;shadow=1;sketch=1;fillColor=#0050ef;strokeColor=#001DBC;fontColor=#ffffff;" parent="xXVs2Da8z8ImEFLXaKTG-2" vertex="1">
                    <mxGeometry x="65" y="354" width="275" height="176" as="geometry"/>
                </mxCell>
                <mxCell id="xXVs2Da8z8ImEFLXaKTG-16" value="Create Space" style="ellipse;whiteSpace=wrap;html=1;rounded=1;shadow=1;sketch=1;fillColor=#0050ef;strokeColor=#001DBC;fontColor=#ffffff;" parent="xXVs2Da8z8ImEFLXaKTG-2" vertex="1">
                    <mxGeometry x="199" y="862" width="275" height="176" as="geometry"/>
                </mxCell>
                <mxCell id="xXVs2Da8z8ImEFLXaKTG-15" value="Create project" style="ellipse;whiteSpace=wrap;html=1;rounded=1;shadow=1;sketch=1;fillColor=#0050ef;strokeColor=#001DBC;fontColor=#ffffff;" parent="xXVs2Da8z8ImEFLXaKTG-2" vertex="1">
                    <mxGeometry x="396" y="656" width="275" height="176" as="geometry"/>
                </mxCell>
                <mxCell id="xXVs2Da8z8ImEFLXaKTG-17" value="create task" style="ellipse;whiteSpace=wrap;html=1;rounded=1;shadow=1;sketch=1;fillColor=#0050ef;strokeColor=#001DBC;fontColor=#ffffff;" parent="xXVs2Da8z8ImEFLXaKTG-2" vertex="1">
                    <mxGeometry x="722" y="681" width="275" height="176" as="geometry"/>
                </mxCell>
                <mxCell id="xXVs2Da8z8ImEFLXaKTG-18" value="create team" style="ellipse;whiteSpace=wrap;html=1;rounded=1;shadow=1;sketch=1;fillColor=#0050ef;strokeColor=#001DBC;fontColor=#ffffff;" parent="xXVs2Da8z8ImEFLXaKTG-2" vertex="1">
                    <mxGeometry x="1088" y="596" width="275" height="176" as="geometry"/>
                </mxCell>
                <mxCell id="xXVs2Da8z8ImEFLXaKTG-19" value="Set team Leader" style="ellipse;whiteSpace=wrap;html=1;rounded=1;shadow=1;sketch=1;fillColor=#0050ef;strokeColor=#001DBC;fontColor=#ffffff;" parent="xXVs2Da8z8ImEFLXaKTG-2" vertex="1">
                    <mxGeometry x="147" y="1286" width="275" height="176" as="geometry"/>
                </mxCell>
                <mxCell id="xXVs2Da8z8ImEFLXaKTG-20" value="Join workspace" style="ellipse;whiteSpace=wrap;html=1;rounded=1;shadow=1;sketch=1;fillColor=#0050ef;strokeColor=#001DBC;fontColor=#ffffff;" parent="xXVs2Da8z8ImEFLXaKTG-2" vertex="1">
                    <mxGeometry x="833" y="1128" width="275" height="176" as="geometry"/>
                </mxCell>
                <mxCell id="MgpYddUKqpa7rD7HUURT-1" value="Authentication" style="ellipse;whiteSpace=wrap;html=1;rounded=1;shadow=1;sketch=1;fillColor=#0050ef;strokeColor=#001DBC;fontColor=#ffffff;" parent="xXVs2Da8z8ImEFLXaKTG-2" vertex="1">
                    <mxGeometry x="65" y="47" width="275" height="176" as="geometry"/>
                </mxCell>
                <mxCell id="MgpYddUKqpa7rD7HUURT-2" value="Sign up" style="ellipse;whiteSpace=wrap;html=1;rounded=1;shadow=1;sketch=1;fillColor=#0050ef;strokeColor=#001DBC;fontColor=#ffffff;" parent="xXVs2Da8z8ImEFLXaKTG-2" vertex="1">
                    <mxGeometry x="410" y="75" width="275" height="176" as="geometry"/>
                </mxCell>
                <mxCell id="MgpYddUKqpa7rD7HUURT-3" value="Log in" style="ellipse;whiteSpace=wrap;html=1;rounded=1;shadow=1;sketch=1;fillColor=#0050ef;strokeColor=#001DBC;fontColor=#ffffff;" parent="xXVs2Da8z8ImEFLXaKTG-2" vertex="1">
                    <mxGeometry x="395" y="281" width="275" height="176" as="geometry"/>
                </mxCell>
                <mxCell id="MgpYddUKqpa7rD7HUURT-4" value="Verify" style="ellipse;whiteSpace=wrap;html=1;rounded=1;shadow=1;sketch=1;fillColor=#0050ef;strokeColor=#001DBC;fontColor=#ffffff;" parent="xXVs2Da8z8ImEFLXaKTG-2" vertex="1">
                    <mxGeometry x="772" y="109" width="275" height="176" as="geometry"/>
                </mxCell>
                <mxCell id="MgpYddUKqpa7rD7HUURT-17" value="depends on" style="endArrow=open;endSize=12;dashed=1;html=1;exitX=0;exitY=0.5;exitDx=0;exitDy=0;fillColor=#0050ef;strokeColor=#001DBC;" parent="xXVs2Da8z8ImEFLXaKTG-2" source="MgpYddUKqpa7rD7HUURT-4" target="MgpYddUKqpa7rD7HUURT-2" edge="1">
                    <mxGeometry width="160" relative="1" as="geometry">
                        <mxPoint x="483" y="245" as="sourcePoint"/>
                        <mxPoint x="643" y="245" as="targetPoint"/>
                    </mxGeometry>
                </mxCell>
                <mxCell id="MgpYddUKqpa7rD7HUURT-27" value="depends on" style="endArrow=open;endSize=12;dashed=1;html=1;exitX=0.5;exitY=0;exitDx=0;exitDy=0;entryX=0.5;entryY=1;entryDx=0;entryDy=0;fillColor=#0050ef;strokeColor=#001DBC;" parent="xXVs2Da8z8ImEFLXaKTG-2" source="xXVs2Da8z8ImEFLXaKTG-14" target="MgpYddUKqpa7rD7HUURT-1" edge="1">
                    <mxGeometry x="0.374" width="160" relative="1" as="geometry">
                        <mxPoint x="224.4499999999873" y="298.41999999999996" as="sourcePoint"/>
                        <mxPoint x="134.0029699699155" y="284.0007708944821" as="targetPoint"/>
                        <mxPoint as="offset"/>
                    </mxGeometry>
                </mxCell>
                <mxCell id="MgpYddUKqpa7rD7HUURT-29" value="Extends" style="endArrow=block;endSize=16;endFill=0;html=1;entryX=0.947;entryY=0.756;entryDx=0;entryDy=0;entryPerimeter=0;fillColor=#0050ef;strokeColor=#001DBC;" parent="xXVs2Da8z8ImEFLXaKTG-2" source="MgpYddUKqpa7rD7HUURT-3" target="MgpYddUKqpa7rD7HUURT-1" edge="1">
                    <mxGeometry width="160" relative="1" as="geometry">
                        <mxPoint x="466" y="237" as="sourcePoint"/>
                        <mxPoint x="626" y="237" as="targetPoint"/>
                    </mxGeometry>
                </mxCell>
                <mxCell id="MgpYddUKqpa7rD7HUURT-0" style="edgeStyle=none;rounded=0;orthogonalLoop=1;jettySize=auto;html=1;fillColor=#0050ef;strokeColor=#001DBC;" parent="xXVs2Da8z8ImEFLXaKTG-1" target="xXVs2Da8z8ImEFLXaKTG-14" edge="1">
                    <mxGeometry relative="1" as="geometry">
                        <mxPoint x="-576" y="-520" as="sourcePoint"/>
                    </mxGeometry>
                </mxCell>
                <mxCell id="xXVs2Da8z8ImEFLXaKTG-3" value="User" style="shape=umlActor;verticalLabelPosition=bottom;verticalAlign=top;html=1;outlineConnect=0;rounded=1;shadow=1;sketch=1;fillColor=#0050ef;strokeColor=#001DBC;fontColor=#ffffff;" parent="xXVs2Da8z8ImEFLXaKTG-1" vertex="1">
                    <mxGeometry x="-676" y="-581" width="126" height="305" as="geometry"/>
                </mxCell>
                <mxCell id="MgpYddUKqpa7rD7HUURT-30" style="edgeStyle=none;rounded=0;orthogonalLoop=1;jettySize=auto;html=1;entryX=0;entryY=0.5;entryDx=0;entryDy=0;fillColor=#0050ef;strokeColor=#001DBC;" parent="xXVs2Da8z8ImEFLXaKTG-1" target="xXVs2Da8z8ImEFLXaKTG-19" edge="1">
                    <mxGeometry relative="1" as="geometry">
                        <mxPoint x="-933" y="304" as="sourcePoint"/>
                        <Array as="points">
                            <mxPoint x="-933" y="467"/>
                        </Array>
                    </mxGeometry>
                </mxCell>
                <mxCell id="xXVs2Da8z8ImEFLXaKTG-4" value="Manager" style="shape=umlActor;verticalLabelPosition=bottom;verticalAlign=top;html=1;outlineConnect=0;rounded=1;shadow=1;sketch=1;fillColor=#0050ef;strokeColor=#001DBC;fontColor=#ffffff;" parent="xXVs2Da8z8ImEFLXaKTG-1" vertex="1">
                    <mxGeometry x="-1003" y="-22" width="156" height="299" as="geometry"/>
                </mxCell>
                <mxCell id="xXVs2Da8z8ImEFLXaKTG-5" value="TeamLeader" style="shape=umlActor;verticalLabelPosition=bottom;verticalAlign=top;html=1;outlineConnect=0;rounded=1;shadow=1;sketch=1;fillColor=#0050ef;strokeColor=#001DBC;fontColor=#ffffff;" parent="xXVs2Da8z8ImEFLXaKTG-1" vertex="1">
                    <mxGeometry x="-691" y="-16" width="156" height="299" as="geometry"/>
                </mxCell>
                <mxCell id="xXVs2Da8z8ImEFLXaKTG-6" value="Member" style="shape=umlActor;verticalLabelPosition=bottom;verticalAlign=top;html=1;outlineConnect=0;rounded=1;shadow=1;sketch=1;fillColor=#0050ef;strokeColor=#001DBC;fontColor=#ffffff;" parent="xXVs2Da8z8ImEFLXaKTG-1" vertex="1">
                    <mxGeometry x="-384" y="-11" width="156" height="299" as="geometry"/>
                </mxCell>
                <mxCell id="xXVs2Da8z8ImEFLXaKTG-11" value="Extends" style="endArrow=block;endSize=16;endFill=0;html=1;exitX=0.5;exitY=0;exitDx=0;exitDy=0;exitPerimeter=0;fillColor=#0050ef;strokeColor=#001DBC;" parent="xXVs2Da8z8ImEFLXaKTG-1" source="xXVs2Da8z8ImEFLXaKTG-4" edge="1">
                    <mxGeometry width="160" relative="1" as="geometry">
                        <mxPoint x="-910" y="-28" as="sourcePoint"/>
                        <mxPoint x="-640" y="-252" as="targetPoint"/>
                    </mxGeometry>
                </mxCell>
                <mxCell id="xXVs2Da8z8ImEFLXaKTG-12" value="Extends" style="endArrow=block;endSize=16;endFill=0;html=1;fillColor=#0050ef;strokeColor=#001DBC;" parent="xXVs2Da8z8ImEFLXaKTG-1" edge="1">
                    <mxGeometry width="160" relative="1" as="geometry">
                        <mxPoint x="-617" y="-16" as="sourcePoint"/>
                        <mxPoint x="-617" y="-248" as="targetPoint"/>
                    </mxGeometry>
                </mxCell>
                <mxCell id="xXVs2Da8z8ImEFLXaKTG-13" value="Extends" style="endArrow=block;endSize=16;endFill=0;html=1;fillColor=#0050ef;strokeColor=#001DBC;" parent="xXVs2Da8z8ImEFLXaKTG-1" edge="1">
                    <mxGeometry width="160" relative="1" as="geometry">
                        <mxPoint x="-296" y="-8" as="sourcePoint"/>
                        <mxPoint x="-592" y="-246" as="targetPoint"/>
                    </mxGeometry>
                </mxCell>
                <mxCell id="MgpYddUKqpa7rD7HUURT-26" style="edgeStyle=none;rounded=0;orthogonalLoop=1;jettySize=auto;html=1;entryX=0;entryY=0.5;entryDx=0;entryDy=0;fillColor=#0050ef;strokeColor=#001DBC;" parent="xXVs2Da8z8ImEFLXaKTG-1" target="MgpYddUKqpa7rD7HUURT-1" edge="1">
                    <mxGeometry relative="1" as="geometry">
                        <mxPoint x="-585" y="-518.9974528752801" as="sourcePoint"/>
                        <mxPoint x="-12.036476666188719" y="-324.9852090298205" as="targetPoint"/>
                    </mxGeometry>
                </mxCell>
                <mxCell id="MgpYddUKqpa7rD7HUURT-28" value="Extends" style="endArrow=block;endSize=16;endFill=0;html=1;entryX=0.961;entryY=0.695;entryDx=0;entryDy=0;entryPerimeter=0;fillColor=#0050ef;strokeColor=#001DBC;" parent="xXVs2Da8z8ImEFLXaKTG-1" target="MgpYddUKqpa7rD7HUURT-1" edge="1">
                    <mxGeometry width="160" relative="1" as="geometry">
                        <mxPoint x="372" y="-763" as="sourcePoint"/>
                        <mxPoint x="532" y="-763" as="targetPoint"/>
                    </mxGeometry>
                </mxCell>
                <mxCell id="10Zzgg1Ywxo1HrNk4cj9-0" value="&lt;font color=&quot;#ff9b87&quot;&gt;Project Management App&lt;/font&gt;" style="text;html=1;align=center;verticalAlign=middle;resizable=0;points=[];autosize=1;strokeColor=none;" vertex="1" parent="xXVs2Da8z8ImEFLXaKTG-1">
                    <mxGeometry x="616" y="-888" width="144" height="18" as="geometry"/>
                </mxCell>
            </root>
        </mxGraphModel>
    </diagram>
    <diagram id="TYje1pIurrcgACvxrCG7" name="Class diagram">
        <mxGraphModel dx="2343" dy="1366" grid="0" gridSize="10" guides="1" tooltips="1" connect="1" arrows="1" fold="1" page="1" pageScale="1" pageWidth="1700" pageHeight="1100" background="#000000" math="0" shadow="0">
            <root>
                <mxCell id="0"/>
                <mxCell id="1" parent="0"/>
                <mxCell id="2" value="User" style="swimlane;fontStyle=1;align=center;verticalAlign=top;childLayout=stackLayout;horizontal=1;startSize=26;horizontalStack=0;resizeParent=1;resizeParentMax=0;resizeLast=0;collapsible=1;marginBottom=0;rounded=1;shadow=1;fillColor=#0050ef;strokeColor=#001DBC;fontColor=#ffffff;glass=0;sketch=1;" parent="1" vertex="1">
                    <mxGeometry x="286" y="204" width="187" height="203" as="geometry"/>
                </mxCell>
                <mxCell id="3" value="+ id: String" style="text;strokeColor=none;fillColor=none;align=left;verticalAlign=top;spacingLeft=4;spacingRight=4;overflow=hidden;rotatable=0;points=[[0,0.5],[1,0.5]];portConstraint=eastwest;" parent="2" vertex="1">
                    <mxGeometry y="26" width="187" height="26" as="geometry"/>
                </mxCell>
                <mxCell id="7" value="+ name: String" style="text;strokeColor=none;fillColor=none;align=left;verticalAlign=top;spacingLeft=4;spacingRight=4;overflow=hidden;rotatable=0;points=[[0,0.5],[1,0.5]];portConstraint=eastwest;" parent="2" vertex="1">
                    <mxGeometry y="52" width="187" height="26" as="geometry"/>
                </mxCell>
                <mxCell id="8" value="+ email: String" style="text;strokeColor=none;fillColor=none;align=left;verticalAlign=top;spacingLeft=4;spacingRight=4;overflow=hidden;rotatable=0;points=[[0,0.5],[1,0.5]];portConstraint=eastwest;" parent="2" vertex="1">
                    <mxGeometry y="78" width="187" height="26" as="geometry"/>
                </mxCell>
                <mxCell id="6" value="+ password: String" style="text;strokeColor=none;fillColor=none;align=left;verticalAlign=top;spacingLeft=4;spacingRight=4;overflow=hidden;rotatable=0;points=[[0,0.5],[1,0.5]];portConstraint=eastwest;" parent="2" vertex="1">
                    <mxGeometry y="104" width="187" height="26" as="geometry"/>
                </mxCell>
                <mxCell id="4" value="" style="line;strokeWidth=1;fillColor=#1ba1e2;align=left;verticalAlign=middle;spacingTop=-1;spacingLeft=3;spacingRight=3;rotatable=0;labelPosition=right;points=[];portConstraint=eastwest;strokeColor=#006EAF;fontColor=#ffffff;" parent="2" vertex="1">
                    <mxGeometry y="130" width="187" height="24" as="geometry"/>
                </mxCell>
                <mxCell id="5" value="+ method(type): type" style="text;strokeColor=none;fillColor=none;align=left;verticalAlign=top;spacingLeft=4;spacingRight=4;overflow=hidden;rotatable=0;points=[[0,0.5],[1,0.5]];portConstraint=eastwest;" parent="2" vertex="1">
                    <mxGeometry y="154" width="187" height="49" as="geometry"/>
                </mxCell>
                <mxCell id="9" value="Extends" style="endArrow=block;endSize=16;endFill=0;html=1;fillColor=#0050ef;strokeColor=#001DBC;" parent="1" edge="1">
                    <mxGeometry width="160" relative="1" as="geometry">
                        <mxPoint x="275" y="483" as="sourcePoint"/>
                        <mxPoint x="319" y="407" as="targetPoint"/>
                    </mxGeometry>
                </mxCell>
                <mxCell id="10" value="Manager" style="swimlane;fontStyle=1;align=center;verticalAlign=top;childLayout=stackLayout;horizontal=1;startSize=26;horizontalStack=0;resizeParent=1;resizeParentMax=0;resizeLast=0;collapsible=1;marginBottom=0;rounded=1;shadow=1;glass=0;sketch=1;fillColor=#0050ef;strokeColor=#001DBC;fontColor=#ffffff;" parent="1" vertex="1">
                    <mxGeometry x="138" y="483" width="160" height="86" as="geometry"/>
                </mxCell>
                <mxCell id="11" value="+ field: type" style="text;strokeColor=none;fillColor=none;align=left;verticalAlign=top;spacingLeft=4;spacingRight=4;overflow=hidden;rotatable=0;points=[[0,0.5],[1,0.5]];portConstraint=eastwest;" parent="10" vertex="1">
                    <mxGeometry y="26" width="160" height="26" as="geometry"/>
                </mxCell>
                <mxCell id="12" value="" style="line;strokeWidth=1;fillColor=none;align=left;verticalAlign=middle;spacingTop=-1;spacingLeft=3;spacingRight=3;rotatable=0;labelPosition=right;points=[];portConstraint=eastwest;" parent="10" vertex="1">
                    <mxGeometry y="52" width="160" height="8" as="geometry"/>
                </mxCell>
                <mxCell id="13" value="+ method(type): type" style="text;strokeColor=none;fillColor=none;align=left;verticalAlign=top;spacingLeft=4;spacingRight=4;overflow=hidden;rotatable=0;points=[[0,0.5],[1,0.5]];portConstraint=eastwest;" parent="10" vertex="1">
                    <mxGeometry y="60" width="160" height="26" as="geometry"/>
                </mxCell>
                <mxCell id="14" value="Extends" style="endArrow=block;endSize=16;endFill=0;html=1;exitX=0.338;exitY=0.016;exitDx=0;exitDy=0;exitPerimeter=0;fillColor=#0050ef;strokeColor=#001DBC;" parent="1" source="15" edge="1">
                    <mxGeometry width="160" relative="1" as="geometry">
                        <mxPoint x="363" y="470" as="sourcePoint"/>
                        <mxPoint x="367" y="407" as="targetPoint"/>
                    </mxGeometry>
                </mxCell>
                <mxCell id="15" value="Team_Leader" style="swimlane;fontStyle=1;align=center;verticalAlign=top;childLayout=stackLayout;horizontal=1;startSize=26;horizontalStack=0;resizeParent=1;resizeParentMax=0;resizeLast=0;collapsible=1;marginBottom=0;rounded=1;shadow=1;glass=0;sketch=1;fillColor=#0050ef;strokeColor=#001DBC;fontColor=#ffffff;" parent="1" vertex="1">
                    <mxGeometry x="313" y="486" width="160" height="86" as="geometry"/>
                </mxCell>
                <mxCell id="16" value="+ field: type" style="text;strokeColor=none;fillColor=none;align=left;verticalAlign=top;spacingLeft=4;spacingRight=4;overflow=hidden;rotatable=0;points=[[0,0.5],[1,0.5]];portConstraint=eastwest;" parent="15" vertex="1">
                    <mxGeometry y="26" width="160" height="26" as="geometry"/>
                </mxCell>
                <mxCell id="17" value="" style="line;strokeWidth=1;fillColor=none;align=left;verticalAlign=middle;spacingTop=-1;spacingLeft=3;spacingRight=3;rotatable=0;labelPosition=right;points=[];portConstraint=eastwest;" parent="15" vertex="1">
                    <mxGeometry y="52" width="160" height="8" as="geometry"/>
                </mxCell>
                <mxCell id="18" value="+ method(type): type" style="text;strokeColor=none;fillColor=none;align=left;verticalAlign=top;spacingLeft=4;spacingRight=4;overflow=hidden;rotatable=0;points=[[0,0.5],[1,0.5]];portConstraint=eastwest;" parent="15" vertex="1">
                    <mxGeometry y="60" width="160" height="26" as="geometry"/>
                </mxCell>
                <mxCell id="19" value="Extends" style="endArrow=block;endSize=16;endFill=0;html=1;exitX=0.354;exitY=-0.021;exitDx=0;exitDy=0;exitPerimeter=0;fillColor=#0050ef;strokeColor=#001DBC;" parent="1" source="20" target="5" edge="1">
                    <mxGeometry width="160" relative="1" as="geometry">
                        <mxPoint x="625" y="486" as="sourcePoint"/>
                        <mxPoint x="669" y="410" as="targetPoint"/>
                    </mxGeometry>
                </mxCell>
                <mxCell id="20" value="Member" style="swimlane;fontStyle=1;align=center;verticalAlign=top;childLayout=stackLayout;horizontal=1;startSize=26;horizontalStack=0;resizeParent=1;resizeParentMax=0;resizeLast=0;collapsible=1;marginBottom=0;rounded=1;shadow=1;glass=0;sketch=1;fillColor=#0050ef;strokeColor=#001DBC;fontColor=#ffffff;" parent="1" vertex="1">
                    <mxGeometry x="488" y="486" width="160" height="86" as="geometry"/>
                </mxCell>
                <mxCell id="21" value="+ field: type" style="text;strokeColor=none;fillColor=none;align=left;verticalAlign=top;spacingLeft=4;spacingRight=4;overflow=hidden;rotatable=0;points=[[0,0.5],[1,0.5]];portConstraint=eastwest;" parent="20" vertex="1">
                    <mxGeometry y="26" width="160" height="26" as="geometry"/>
                </mxCell>
                <mxCell id="22" value="" style="line;strokeWidth=1;fillColor=none;align=left;verticalAlign=middle;spacingTop=-1;spacingLeft=3;spacingRight=3;rotatable=0;labelPosition=right;points=[];portConstraint=eastwest;" parent="20" vertex="1">
                    <mxGeometry y="52" width="160" height="8" as="geometry"/>
                </mxCell>
                <mxCell id="23" value="+ method(type): type" style="text;strokeColor=none;fillColor=none;align=left;verticalAlign=top;spacingLeft=4;spacingRight=4;overflow=hidden;rotatable=0;points=[[0,0.5],[1,0.5]];portConstraint=eastwest;" parent="20" vertex="1">
                    <mxGeometry y="60" width="160" height="26" as="geometry"/>
                </mxCell>
                <mxCell id="25" value="Workspace" style="swimlane;fontStyle=1;align=center;verticalAlign=top;childLayout=stackLayout;horizontal=1;startSize=26;horizontalStack=0;resizeParent=1;resizeParentMax=0;resizeLast=0;collapsible=1;marginBottom=0;rounded=1;shadow=1;sketch=1;fillColor=#0050ef;strokeColor=#001DBC;fontColor=#ffffff;" parent="1" vertex="1">
                    <mxGeometry x="634" y="230" width="160" height="86" as="geometry"/>
                </mxCell>
                <mxCell id="26" value="+ field: type" style="text;strokeColor=none;fillColor=none;align=left;verticalAlign=top;spacingLeft=4;spacingRight=4;overflow=hidden;rotatable=0;points=[[0,0.5],[1,0.5]];portConstraint=eastwest;" parent="25" vertex="1">
                    <mxGeometry y="26" width="160" height="26" as="geometry"/>
                </mxCell>
                <mxCell id="27" value="" style="line;strokeWidth=1;fillColor=none;align=left;verticalAlign=middle;spacingTop=-1;spacingLeft=3;spacingRight=3;rotatable=0;labelPosition=right;points=[];portConstraint=eastwest;" parent="25" vertex="1">
                    <mxGeometry y="52" width="160" height="8" as="geometry"/>
                </mxCell>
                <mxCell id="28" value="+ method(type): type" style="text;strokeColor=none;fillColor=none;align=left;verticalAlign=top;spacingLeft=4;spacingRight=4;overflow=hidden;rotatable=0;points=[[0,0.5],[1,0.5]];portConstraint=eastwest;" parent="25" vertex="1">
                    <mxGeometry y="60" width="160" height="26" as="geometry"/>
                </mxCell>
                <mxCell id="29" value="Project" style="swimlane;fontStyle=1;align=center;verticalAlign=top;childLayout=stackLayout;horizontal=1;startSize=26;horizontalStack=0;resizeParent=1;resizeParentMax=0;resizeLast=0;collapsible=1;marginBottom=0;rounded=1;shadow=1;sketch=1;fillColor=#0050ef;strokeColor=#001DBC;fontColor=#ffffff;" parent="1" vertex="1">
                    <mxGeometry x="834" y="414" width="160" height="86" as="geometry"/>
                </mxCell>
                <mxCell id="30" value="+ field: type" style="text;strokeColor=none;fillColor=none;align=left;verticalAlign=top;spacingLeft=4;spacingRight=4;overflow=hidden;rotatable=0;points=[[0,0.5],[1,0.5]];portConstraint=eastwest;" parent="29" vertex="1">
                    <mxGeometry y="26" width="160" height="26" as="geometry"/>
                </mxCell>
                <mxCell id="31" value="" style="line;strokeWidth=1;fillColor=none;align=left;verticalAlign=middle;spacingTop=-1;spacingLeft=3;spacingRight=3;rotatable=0;labelPosition=right;points=[];portConstraint=eastwest;" parent="29" vertex="1">
                    <mxGeometry y="52" width="160" height="8" as="geometry"/>
                </mxCell>
                <mxCell id="32" value="+ method(type): type" style="text;strokeColor=none;fillColor=none;align=left;verticalAlign=top;spacingLeft=4;spacingRight=4;overflow=hidden;rotatable=0;points=[[0,0.5],[1,0.5]];portConstraint=eastwest;" parent="29" vertex="1">
                    <mxGeometry y="60" width="160" height="26" as="geometry"/>
                </mxCell>
                <mxCell id="33" value="Space" style="swimlane;fontStyle=1;align=center;verticalAlign=top;childLayout=stackLayout;horizontal=1;startSize=26;horizontalStack=0;resizeParent=1;resizeParentMax=0;resizeLast=0;collapsible=1;marginBottom=0;rounded=1;shadow=1;sketch=1;fillColor=#0050ef;strokeColor=#001DBC;fontColor=#ffffff;" parent="1" vertex="1">
                    <mxGeometry x="906" y="226" width="160" height="86" as="geometry"/>
                </mxCell>
                <mxCell id="81" value="" style="endArrow=diamondThin;endFill=0;endSize=24;html=1;entryX=1;entryY=0.25;entryDx=0;entryDy=0;fillColor=#6a00ff;strokeColor=#3700CC;" parent="33" target="25" edge="1">
                    <mxGeometry width="160" relative="1" as="geometry">
                        <mxPoint y="24.569999999999993" as="sourcePoint"/>
                        <mxPoint x="160" y="24.569999999999993" as="targetPoint"/>
                    </mxGeometry>
                </mxCell>
                <mxCell id="34" value="+ field: type" style="text;strokeColor=none;fillColor=none;align=left;verticalAlign=top;spacingLeft=4;spacingRight=4;overflow=hidden;rotatable=0;points=[[0,0.5],[1,0.5]];portConstraint=eastwest;" parent="33" vertex="1">
                    <mxGeometry y="26" width="160" height="26" as="geometry"/>
                </mxCell>
                <mxCell id="35" value="" style="line;strokeWidth=1;fillColor=none;align=left;verticalAlign=middle;spacingTop=-1;spacingLeft=3;spacingRight=3;rotatable=0;labelPosition=right;points=[];portConstraint=eastwest;" parent="33" vertex="1">
                    <mxGeometry y="52" width="160" height="8" as="geometry"/>
                </mxCell>
                <mxCell id="36" value="+ method(type): type" style="text;strokeColor=none;fillColor=none;align=left;verticalAlign=top;spacingLeft=4;spacingRight=4;overflow=hidden;rotatable=0;points=[[0,0.5],[1,0.5]];portConstraint=eastwest;" parent="33" vertex="1">
                    <mxGeometry y="60" width="160" height="26" as="geometry"/>
                </mxCell>
                <mxCell id="37" value="Task" style="swimlane;fontStyle=1;align=center;verticalAlign=top;childLayout=stackLayout;horizontal=1;startSize=26;horizontalStack=0;resizeParent=1;resizeParentMax=0;resizeLast=0;collapsible=1;marginBottom=0;rounded=1;shadow=1;sketch=1;fillColor=#0050ef;strokeColor=#001DBC;fontColor=#ffffff;" parent="1" vertex="1">
                    <mxGeometry x="836" y="590" width="160" height="86" as="geometry"/>
                </mxCell>
                <mxCell id="38" value="+ field: type" style="text;strokeColor=none;fillColor=none;align=left;verticalAlign=top;spacingLeft=4;spacingRight=4;overflow=hidden;rotatable=0;points=[[0,0.5],[1,0.5]];portConstraint=eastwest;" parent="37" vertex="1">
                    <mxGeometry y="26" width="160" height="26" as="geometry"/>
                </mxCell>
                <mxCell id="39" value="" style="line;strokeWidth=1;fillColor=none;align=left;verticalAlign=middle;spacingTop=-1;spacingLeft=3;spacingRight=3;rotatable=0;labelPosition=right;points=[];portConstraint=eastwest;" parent="37" vertex="1">
                    <mxGeometry y="52" width="160" height="8" as="geometry"/>
                </mxCell>
                <mxCell id="40" value="+ method(type): type" style="text;strokeColor=none;fillColor=none;align=left;verticalAlign=top;spacingLeft=4;spacingRight=4;overflow=hidden;rotatable=0;points=[[0,0.5],[1,0.5]];portConstraint=eastwest;" parent="37" vertex="1">
                    <mxGeometry y="60" width="160" height="26" as="geometry"/>
                </mxCell>
                <mxCell id="44" value="" style="endArrow=diamondThin;endFill=1;endSize=24;html=1;fillColor=#0050ef;strokeColor=#001DBC;" parent="1" source="37" target="29" edge="1">
                    <mxGeometry width="160" relative="1" as="geometry">
                        <mxPoint x="739" y="323" as="sourcePoint"/>
                        <mxPoint x="899" y="323" as="targetPoint"/>
                    </mxGeometry>
                </mxCell>
                <mxCell id="45" value="" style="endArrow=none;html=1;edgeStyle=orthogonalEdgeStyle;fillColor=#0050ef;strokeColor=#001DBC;" parent="1" edge="1">
                    <mxGeometry relative="1" as="geometry">
                        <mxPoint x="473" y="243.29000000000002" as="sourcePoint"/>
                        <mxPoint x="633" y="243.29000000000002" as="targetPoint"/>
                    </mxGeometry>
                </mxCell>
                <mxCell id="48" value="&lt;font color=&quot;#ff9b87&quot;&gt;has&lt;/font&gt;" style="text;html=1;align=center;verticalAlign=middle;resizable=0;points=[];autosize=1;strokeColor=none;" parent="1" vertex="1">
                    <mxGeometry x="531" y="226" width="29" height="18" as="geometry"/>
                </mxCell>
                <mxCell id="50" value="" style="endArrow=diamondThin;endFill=1;endSize=24;html=1;exitX=0.687;exitY=0.02;exitDx=0;exitDy=0;entryX=0.237;entryY=1.121;entryDx=0;entryDy=0;entryPerimeter=0;exitPerimeter=0;fillColor=#0050ef;strokeColor=#001DBC;" parent="1" source="29" target="36" edge="1">
                    <mxGeometry width="160" relative="1" as="geometry">
                        <mxPoint x="674" y="476" as="sourcePoint"/>
                        <mxPoint x="834" y="476" as="targetPoint"/>
                    </mxGeometry>
                </mxCell>
                <mxCell id="57" value="&lt;font color=&quot;#ff9b87&quot;&gt;team&lt;/font&gt;" style="text;html=1;align=center;verticalAlign=middle;resizable=0;points=[];autosize=1;strokeColor=none;" parent="1" vertex="1">
                    <mxGeometry x="244" y="138" width="36" height="18" as="geometry"/>
                </mxCell>
                <mxCell id="58" value="Ganttchart" style="swimlane;fontStyle=1;align=center;verticalAlign=top;childLayout=stackLayout;horizontal=1;startSize=26;horizontalStack=0;resizeParent=1;resizeParentMax=0;resizeLast=0;collapsible=1;marginBottom=0;rounded=1;shadow=1;sketch=1;fillColor=#0050ef;strokeColor=#001DBC;fontColor=#ffffff;" parent="1" vertex="1">
                    <mxGeometry x="611" y="723" width="160" height="86" as="geometry"/>
                </mxCell>
                <mxCell id="127" value="1" style="endArrow=open;html=1;endSize=12;startArrow=diamondThin;startSize=14;startFill=0;edgeStyle=orthogonalEdgeStyle;align=left;verticalAlign=bottom;exitX=0;exitY=0.5;exitDx=0;exitDy=0;fillColor=#0050ef;strokeColor=#001DBC;" edge="1" parent="58" source="59">
                    <mxGeometry x="-1" y="3" relative="1" as="geometry">
                        <mxPoint x="34" y="5" as="sourcePoint"/>
                        <mxPoint x="-60" y="-149" as="targetPoint"/>
                    </mxGeometry>
                </mxCell>
                <mxCell id="59" value="+ field: type" style="text;strokeColor=none;fillColor=none;align=left;verticalAlign=top;spacingLeft=4;spacingRight=4;overflow=hidden;rotatable=0;points=[[0,0.5],[1,0.5]];portConstraint=eastwest;" parent="58" vertex="1">
                    <mxGeometry y="26" width="160" height="26" as="geometry"/>
                </mxCell>
                <mxCell id="60" value="" style="line;strokeWidth=1;fillColor=none;align=left;verticalAlign=middle;spacingTop=-1;spacingLeft=3;spacingRight=3;rotatable=0;labelPosition=right;points=[];portConstraint=eastwest;" parent="58" vertex="1">
                    <mxGeometry y="52" width="160" height="8" as="geometry"/>
                </mxCell>
                <mxCell id="61" value="+ method(type): type" style="text;strokeColor=none;fillColor=none;align=left;verticalAlign=top;spacingLeft=4;spacingRight=4;overflow=hidden;rotatable=0;points=[[0,0.5],[1,0.5]];portConstraint=eastwest;" parent="58" vertex="1">
                    <mxGeometry y="60" width="160" height="26" as="geometry"/>
                </mxCell>
                <mxCell id="62" value="Board" style="swimlane;fontStyle=1;align=center;verticalAlign=top;childLayout=stackLayout;horizontal=1;startSize=26;horizontalStack=0;resizeParent=1;resizeParentMax=0;resizeLast=0;collapsible=1;marginBottom=0;rounded=1;shadow=1;sketch=1;fillColor=#0050ef;strokeColor=#001DBC;fontColor=#ffffff;" parent="1" vertex="1">
                    <mxGeometry x="1169" y="550" width="160" height="86" as="geometry"/>
                </mxCell>
                <mxCell id="63" value="+ field: type" style="text;strokeColor=none;fillColor=none;align=left;verticalAlign=top;spacingLeft=4;spacingRight=4;overflow=hidden;rotatable=0;points=[[0,0.5],[1,0.5]];portConstraint=eastwest;" parent="62" vertex="1">
                    <mxGeometry y="26" width="160" height="26" as="geometry"/>
                </mxCell>
                <mxCell id="64" value="" style="line;strokeWidth=1;fillColor=none;align=left;verticalAlign=middle;spacingTop=-1;spacingLeft=3;spacingRight=3;rotatable=0;labelPosition=right;points=[];portConstraint=eastwest;" parent="62" vertex="1">
                    <mxGeometry y="52" width="160" height="8" as="geometry"/>
                </mxCell>
                <mxCell id="65" value="+ method(type): type" style="text;strokeColor=none;fillColor=none;align=left;verticalAlign=top;spacingLeft=4;spacingRight=4;overflow=hidden;rotatable=0;points=[[0,0.5],[1,0.5]];portConstraint=eastwest;" parent="62" vertex="1">
                    <mxGeometry y="60" width="160" height="26" as="geometry"/>
                </mxCell>
                <mxCell id="66" value="Chat" style="swimlane;fontStyle=1;align=center;verticalAlign=top;childLayout=stackLayout;horizontal=1;startSize=26;horizontalStack=0;resizeParent=1;resizeParentMax=0;resizeLast=0;collapsible=1;marginBottom=0;rounded=1;shadow=1;sketch=1;fillColor=#0050ef;strokeColor=#001DBC;fontColor=#ffffff;" parent="1" vertex="1">
                    <mxGeometry x="26" y="312" width="160" height="86" as="geometry"/>
                </mxCell>
                <mxCell id="67" value="+ field: type" style="text;strokeColor=none;fillColor=none;align=left;verticalAlign=top;spacingLeft=4;spacingRight=4;overflow=hidden;rotatable=0;points=[[0,0.5],[1,0.5]];portConstraint=eastwest;" parent="66" vertex="1">
                    <mxGeometry y="26" width="160" height="26" as="geometry"/>
                </mxCell>
                <mxCell id="68" value="" style="line;strokeWidth=1;fillColor=none;align=left;verticalAlign=middle;spacingTop=-1;spacingLeft=3;spacingRight=3;rotatable=0;labelPosition=right;points=[];portConstraint=eastwest;" parent="66" vertex="1">
                    <mxGeometry y="52" width="160" height="8" as="geometry"/>
                </mxCell>
                <mxCell id="69" value="+ method(type): type" style="text;strokeColor=none;fillColor=none;align=left;verticalAlign=top;spacingLeft=4;spacingRight=4;overflow=hidden;rotatable=0;points=[[0,0.5],[1,0.5]];portConstraint=eastwest;" parent="66" vertex="1">
                    <mxGeometry y="60" width="160" height="26" as="geometry"/>
                </mxCell>
                <mxCell id="70" value="Card" style="swimlane;fontStyle=1;align=center;verticalAlign=top;childLayout=stackLayout;horizontal=1;startSize=26;horizontalStack=0;resizeParent=1;resizeParentMax=0;resizeLast=0;collapsible=1;marginBottom=0;rounded=1;shadow=1;sketch=1;fillColor=#0050ef;strokeColor=#001DBC;fontColor=#ffffff;" parent="1" vertex="1">
                    <mxGeometry x="1428" y="550" width="160" height="86" as="geometry"/>
                </mxCell>
                <mxCell id="71" value="+ field: type" style="text;strokeColor=none;fillColor=none;align=left;verticalAlign=top;spacingLeft=4;spacingRight=4;overflow=hidden;rotatable=0;points=[[0,0.5],[1,0.5]];portConstraint=eastwest;" parent="70" vertex="1">
                    <mxGeometry y="26" width="160" height="26" as="geometry"/>
                </mxCell>
                <mxCell id="72" value="" style="line;strokeWidth=1;fillColor=none;align=left;verticalAlign=middle;spacingTop=-1;spacingLeft=3;spacingRight=3;rotatable=0;labelPosition=right;points=[];portConstraint=eastwest;" parent="70" vertex="1">
                    <mxGeometry y="52" width="160" height="8" as="geometry"/>
                </mxCell>
                <mxCell id="73" value="+ method(type): type" style="text;strokeColor=none;fillColor=none;align=left;verticalAlign=top;spacingLeft=4;spacingRight=4;overflow=hidden;rotatable=0;points=[[0,0.5],[1,0.5]];portConstraint=eastwest;" parent="70" vertex="1">
                    <mxGeometry y="60" width="160" height="26" as="geometry"/>
                </mxCell>
                <mxCell id="82" value="" style="endArrow=diamondThin;endFill=0;endSize=24;html=1;exitX=0.25;exitY=0;exitDx=0;exitDy=0;fillColor=#0050ef;strokeColor=#001DBC;" parent="1" source="2" edge="1">
                    <mxGeometry width="160" relative="1" as="geometry">
                        <mxPoint x="338" y="210" as="sourcePoint"/>
                        <mxPoint x="289" y="231" as="targetPoint"/>
                        <Array as="points">
                            <mxPoint x="333" y="153"/>
                            <mxPoint x="200" y="153"/>
                            <mxPoint x="200" y="231"/>
                        </Array>
                    </mxGeometry>
                </mxCell>
                <mxCell id="94" value="" style="endArrow=diamondThin;endFill=1;endSize=24;html=1;entryX=1;entryY=0.5;entryDx=0;entryDy=0;fillColor=#0050ef;strokeColor=#001DBC;" parent="1" source="70" target="63" edge="1">
                    <mxGeometry width="160" relative="1" as="geometry">
                        <mxPoint x="1001" y="618" as="sourcePoint"/>
                        <mxPoint x="1161" y="618" as="targetPoint"/>
                    </mxGeometry>
                </mxCell>
                <mxCell id="102" value="" style="endArrow=none;html=1;entryX=0;entryY=0.5;entryDx=0;entryDy=0;exitX=1;exitY=0.25;exitDx=0;exitDy=0;fillColor=#0050ef;strokeColor=#001DBC;" parent="1" source="66" target="7" edge="1">
                    <mxGeometry width="50" height="50" relative="1" as="geometry">
                        <mxPoint x="261" y="395" as="sourcePoint"/>
                        <mxPoint x="246" y="247" as="targetPoint"/>
                    </mxGeometry>
                </mxCell>
                <mxCell id="103" value="" style="endArrow=none;html=1;entryX=0;entryY=0.5;entryDx=0;entryDy=0;exitX=1.001;exitY=0;exitDx=0;exitDy=0;exitPerimeter=0;fillColor=#0050ef;strokeColor=#001DBC;" parent="1" source="67" target="5" edge="1">
                    <mxGeometry width="50" height="50" relative="1" as="geometry">
                        <mxPoint x="261" y="395" as="sourcePoint"/>
                        <mxPoint x="311" y="345" as="targetPoint"/>
                    </mxGeometry>
                </mxCell>
                <mxCell id="106" value="" style="endArrow=none;html=1;fillColor=#0050ef;strokeColor=#001DBC;" parent="1" edge="1">
                    <mxGeometry width="50" height="50" relative="1" as="geometry">
                        <mxPoint x="206" y="346" as="sourcePoint"/>
                        <mxPoint x="206" y="320" as="targetPoint"/>
                    </mxGeometry>
                </mxCell>
                <mxCell id="107" value="" style="endArrow=none;html=1;fillColor=#0050ef;strokeColor=#001DBC;" parent="1" edge="1">
                    <mxGeometry width="50" height="50" relative="1" as="geometry">
                        <mxPoint x="216" y="351" as="sourcePoint"/>
                        <mxPoint x="216" y="314" as="targetPoint"/>
                    </mxGeometry>
                </mxCell>
                <mxCell id="108" value="&lt;font color=&quot;#ff9b87&quot;&gt;make&lt;/font&gt;" style="text;html=1;align=center;verticalAlign=middle;resizable=0;points=[];autosize=1;strokeColor=none;" parent="1" vertex="1">
                    <mxGeometry x="212" y="325" width="40" height="18" as="geometry"/>
                </mxCell>
                <mxCell id="110" value="" style="endArrow=none;html=1;edgeStyle=orthogonalEdgeStyle;entryX=0;entryY=0.5;entryDx=0;entryDy=0;exitX=1.006;exitY=0.06;exitDx=0;exitDy=0;exitPerimeter=0;fillColor=#0050ef;strokeColor=#001DBC;" edge="1" parent="1" source="21" target="38">
                    <mxGeometry relative="1" as="geometry">
                        <mxPoint x="655" y="549" as="sourcePoint"/>
                        <mxPoint x="944" y="435" as="targetPoint"/>
                    </mxGeometry>
                </mxCell>
                <mxCell id="113" value="&lt;font color=&quot;#ff9b87&quot;&gt;assinged to&lt;/font&gt;" style="text;html=1;align=center;verticalAlign=middle;resizable=0;points=[];autosize=1;strokeColor=none;" vertex="1" parent="1">
                    <mxGeometry x="699" y="576" width="72" height="18" as="geometry"/>
                </mxCell>
                <mxCell id="114" value="" style="triangle;whiteSpace=wrap;html=1;fillColor=#0050ef;strokeColor=#001DBC;fontColor=#ffffff;" vertex="1" parent="1">
                    <mxGeometry x="748" y="594" width="12" height="16" as="geometry"/>
                </mxCell>
                <mxCell id="115" value="" style="endArrow=none;html=1;edgeStyle=orthogonalEdgeStyle;fillColor=#0050ef;strokeColor=#001DBC;" edge="1" parent="1">
                    <mxGeometry relative="1" as="geometry">
                        <mxPoint x="994" y="484" as="sourcePoint"/>
                        <mxPoint x="771" y="772" as="targetPoint"/>
                        <Array as="points">
                            <mxPoint x="994" y="484"/>
                            <mxPoint x="1040" y="484"/>
                            <mxPoint x="1040" y="772"/>
                            <mxPoint x="771" y="772"/>
                        </Array>
                    </mxGeometry>
                </mxCell>
                <mxCell id="118" value="&lt;font color=&quot;#ff9b87&quot;&gt;has&lt;/font&gt;" style="text;html=1;align=center;verticalAlign=middle;resizable=0;points=[];autosize=1;strokeColor=none;" vertex="1" parent="1">
                    <mxGeometry x="1026" y="621" width="29" height="18" as="geometry"/>
                </mxCell>
                <mxCell id="120" value="&lt;font color=&quot;#ff9b87&quot;&gt;has&lt;/font&gt;" style="text;html=1;align=center;verticalAlign=middle;resizable=0;points=[];autosize=1;fontColor=#ffffff;" vertex="1" parent="1">
                    <mxGeometry x="1050" y="435" width="29" height="18" as="geometry"/>
                </mxCell>
                <mxCell id="123" value="" style="endArrow=none;html=1;edgeStyle=orthogonalEdgeStyle;entryX=0;entryY=0.25;entryDx=0;entryDy=0;exitX=1;exitY=0.5;exitDx=0;exitDy=0;fillColor=#0050ef;strokeColor=#001DBC;" edge="1" parent="1" source="30" target="62">
                    <mxGeometry relative="1" as="geometry">
                        <mxPoint x="993" y="432" as="sourcePoint"/>
                        <mxPoint x="1119" y="573" as="targetPoint"/>
                        <Array as="points">
                            <mxPoint x="1130" y="453"/>
                            <mxPoint x="1130" y="572"/>
                        </Array>
                    </mxGeometry>
                </mxCell>
                <mxCell id="129" value="" style="endArrow=diamondThin;endFill=0;endSize=24;html=1;exitX=0.31;exitY=0.995;exitDx=0;exitDy=0;exitPerimeter=0;entryX=1;entryY=0.25;entryDx=0;entryDy=0;fillColor=#0050ef;strokeColor=#001DBC;" edge="1" parent="1" source="40" target="58">
                    <mxGeometry width="160" relative="1" as="geometry">
                        <mxPoint x="771" y="546" as="sourcePoint"/>
                        <mxPoint x="931" y="546" as="targetPoint"/>
                        <Array as="points">
                            <mxPoint x="886" y="745"/>
                        </Array>
                    </mxGeometry>
                </mxCell>
            </root>
        </mxGraphModel>
    </diagram>
    <diagram id="FhzCEhI9BexuJUzvcMwo" name="Sequence diagram">
        <mxGraphModel dx="820" dy="441" grid="1" gridSize="10" guides="1" tooltips="1" connect="1" arrows="1" fold="1" page="1" pageScale="1" pageWidth="1700" pageHeight="1100" math="0" shadow="0">
            <root>
                <mxCell id="X47F-dgh5q2Dz0jrpXC5-0"/>
                <mxCell id="X47F-dgh5q2Dz0jrpXC5-1" parent="X47F-dgh5q2Dz0jrpXC5-0"/>
            </root>
        </mxGraphModel>
    </diagram>
    <diagram id="94z_XlF_krIcY6Eatl4W" name="ERD">
        <mxGraphModel dx="820" dy="441" grid="1" gridSize="10" guides="1" tooltips="1" connect="1" arrows="1" fold="1" page="1" pageScale="1" pageWidth="1700" pageHeight="1100" math="0" shadow="0">
            <root>
                <mxCell id="kNiLHb2Am7cai7TZyveH-0"/>
                <mxCell id="kNiLHb2Am7cai7TZyveH-1" parent="kNiLHb2Am7cai7TZyveH-0"/>
            </root>
        </mxGraphModel>
    </diagram>
    <diagram id="sWxBRGKq_mLAi9NjYLVT" name="Package diagram">
        <mxGraphModel dx="820" dy="441" grid="1" gridSize="10" guides="1" tooltips="1" connect="1" arrows="1" fold="1" page="1" pageScale="1" pageWidth="1700" pageHeight="1100" math="0" shadow="0">
            <root>
                <mxCell id="oywQEjfeEUREiiK83mmi-0"/>
                <mxCell id="oywQEjfeEUREiiK83mmi-1" parent="oywQEjfeEUREiiK83mmi-0"/>
            </root>
        </mxGraphModel>
    </diagram>
</mxfile>